<svg xmlns="http://www.w3.org/2000/svg" width="1550" height="998" viewBox="0 0 1550 998" font-family="'Noto Sans CJK JP','Hiragino Sans','Yu Gothic',sans-serif">
<rect width="1550" height="998" rx="18" fill="#282c34"/>
<text x="42" y="60" font-size="34" font-weight="700" fill="#dcdfe4">Neovim チートシート</text>
<rect x="42" y="78" width="360" height="4" rx="2" fill="#53c9b8"/>
<text x="42" y="106" font-size="16" fill="#788094">leader = Space（例: &lt;leader&gt;e は Space→e）　C- = Ctrl　S- = Shift</text>
<rect x="42" y="132" width="470" height="226" rx="14" fill="#21252b"/>
<path d="M56,132 h442 a14,14 0 0 1 14,14 v22 h-470 v-22 a14,14 0 0 1 14,-14 z" fill="#2f343f"/>
<rect x="62" y="142" width="6" height="16" rx="3" fill="#53c9b8"/>
<text x="78" y="157" font-size="19" font-weight="700" fill="#53c9b8">モード</text>
<rect x="64" y="182" width="25" height="21" rx="6" fill="#3b4252"/>
<text x="72" y="197" font-size="15" font-family="'DejaVu Sans Mono','SFMono-Regular',Menlo,monospace" fill="#e5c07b">i</text>
<text x="196" y="197" font-size="15" fill="#abb2bf">カーソル前で挿入</text>
<rect x="64" y="209" width="25" height="21" rx="6" fill="#3b4252"/>
<text x="72" y="224" font-size="15" font-family="'DejaVu Sans Mono','SFMono-Regular',Menlo,monospace" fill="#e5c07b">a</text>
<text x="196" y="224" font-size="15" fill="#abb2bf">カーソル後で挿入</text>
<rect x="64" y="236" width="25" height="21" rx="6" fill="#3b4252"/>
<text x="72" y="251" font-size="15" font-family="'DejaVu Sans Mono','SFMono-Regular',Menlo,monospace" fill="#e5c07b">o</text>
<text x="196" y="251" font-size="15" fill="#abb2bf">下に行を追加して挿入</text>
<rect x="64" y="263" width="59" height="21" rx="6" fill="#3b4252"/>
<text x="72" y="278" font-size="15" font-family="'DejaVu Sans Mono','SFMono-Regular',Menlo,monospace" fill="#e5c07b">v / V</text>
<text x="196" y="278" font-size="15" fill="#abb2bf">ビジュアル選択 / 行選択</text>
<rect x="64" y="290" width="25" height="21" rx="6" fill="#3b4252"/>
<text x="72" y="305" font-size="15" font-family="'DejaVu Sans Mono','SFMono-Regular',Menlo,monospace" fill="#e5c07b">:</text>
<text x="196" y="305" font-size="15" fill="#abb2bf">コマンド入力</text>
<rect x="64" y="317" width="85" height="21" rx="6" fill="#3b4252"/>
<text x="72" y="332" font-size="15" font-family="'DejaVu Sans Mono','SFMono-Regular',Menlo,monospace" fill="#e5c07b">Esc / jj</text>
<text x="196" y="332" font-size="15" fill="#abb2bf">ノーマルへ戻る（jjは自分の設定）</text>
<rect x="42" y="380" width="470" height="172" rx="14" fill="#21252b"/>
<path d="M56,380 h442 a14,14 0 0 1 14,14 v22 h-470 v-22 a14,14 0 0 1 14,-14 z" fill="#2f343f"/>
<rect x="62" y="390" width="6" height="16" rx="3" fill="#53c9b8"/>
<text x="78" y="405" font-size="19" font-weight="700" fill="#53c9b8">検索・置換</text>
<rect x="64" y="430" width="59" height="21" rx="6" fill="#3b4252"/>
<text x="72" y="445" font-size="15" font-family="'DejaVu Sans Mono','SFMono-Regular',Menlo,monospace" fill="#e5c07b">/word</text>
<text x="196" y="445" font-size="15" fill="#abb2bf">前方検索</text>
<rect x="64" y="457" width="59" height="21" rx="6" fill="#3b4252"/>
<text x="72" y="472" font-size="15" font-family="'DejaVu Sans Mono','SFMono-Regular',Menlo,monospace" fill="#e5c07b">n / N</text>
<text x="196" y="472" font-size="15" fill="#abb2bf">次 / 前の一致へ</text>
<rect x="64" y="484" width="25" height="21" rx="6" fill="#3b4252"/>
<text x="72" y="499" font-size="15" font-family="'DejaVu Sans Mono','SFMono-Regular',Menlo,monospace" fill="#e5c07b">*</text>
<text x="196" y="499" font-size="15" fill="#abb2bf">カーソル下の単語を検索</text>
<rect x="64" y="511" width="93" height="21" rx="6" fill="#3b4252"/>
<text x="72" y="526" font-size="15" font-family="'DejaVu Sans Mono','SFMono-Regular',Menlo,monospace" fill="#e5c07b">:%s/a/b/g</text>
<text x="196" y="526" font-size="15" fill="#abb2bf">全体でa→bに置換</text>
<rect x="42" y="574" width="470" height="199" rx="14" fill="#21252b"/>
<path d="M56,574 h442 a14,14 0 0 1 14,14 v22 h-470 v-22 a14,14 0 0 1 14,-14 z" fill="#2f343f"/>
<rect x="62" y="584" width="6" height="16" rx="3" fill="#53c9b8"/>
<text x="78" y="599" font-size="19" font-weight="700" fill="#53c9b8">NeoTree（ファイラ）</text>
<rect x="64" y="624" width="93" height="21" rx="6" fill="#3b4252"/>
<text x="72" y="639" font-size="15" font-family="'DejaVu Sans Mono','SFMono-Regular',Menlo,monospace" fill="#e5c07b">&lt;leader&gt;e</text>
<text x="196" y="639" font-size="15" fill="#abb2bf">ファイラを開閉</text>
<rect x="64" y="651" width="93" height="21" rx="6" fill="#3b4252"/>
<text x="72" y="666" font-size="15" font-family="'DejaVu Sans Mono','SFMono-Regular',Menlo,monospace" fill="#e5c07b">&lt;leader&gt;o</text>
<text x="196" y="666" font-size="15" fill="#abb2bf">ファイラ⇄編集を行き来</text>
<rect x="64" y="678" width="25" height="21" rx="6" fill="#3b4252"/>
<text x="72" y="693" font-size="15" font-family="'DejaVu Sans Mono','SFMono-Regular',Menlo,monospace" fill="#e5c07b">H</text>
<text x="196" y="693" font-size="15" fill="#abb2bf">隠しファイル表示切替</text>
<rect x="64" y="705" width="93" height="21" rx="6" fill="#3b4252"/>
<text x="72" y="720" font-size="15" font-family="'DejaVu Sans Mono','SFMono-Regular',Menlo,monospace" fill="#e5c07b">a / d / r</text>
<text x="196" y="720" font-size="15" fill="#abb2bf">作成 / 削除 / 改名</text>
<rect x="64" y="732" width="59" height="21" rx="6" fill="#3b4252"/>
<text x="72" y="747" font-size="15" font-family="'DejaVu Sans Mono','SFMono-Regular',Menlo,monospace" fill="#e5c07b">Enter</text>
<text x="196" y="747" font-size="15" fill="#abb2bf">開く / 展開</text>
<rect x="42" y="795" width="470" height="145" rx="14" fill="#21252b"/>
<path d="M56,795 h442 a14,14 0 0 1 14,14 v22 h-470 v-22 a14,14 0 0 1 14,-14 z" fill="#2f343f"/>
<rect x="62" y="805" width="6" height="16" rx="3" fill="#53c9b8"/>
<text x="78" y="820" font-size="19" font-weight="700" fill="#53c9b8">画像・その他</text>
<rect x="64" y="845" width="93" height="21" rx="6" fill="#3b4252"/>
<text x="72" y="860" font-size="15" font-family="'DejaVu Sans Mono','SFMono-Regular',Menlo,monospace" fill="#e5c07b">&lt;leader&gt;i</text>
<text x="196" y="860" font-size="15" fill="#abb2bf">画像をプレビュー（小）</text>
<rect x="64" y="872" width="93" height="21" rx="6" fill="#3b4252"/>
<text x="72" y="887" font-size="15" font-family="'DejaVu Sans Mono','SFMono-Regular',Menlo,monospace" fill="#e5c07b">&lt;leader&gt;I</text>
<text x="196" y="887" font-size="15" fill="#abb2bf">画像を別タブでフル表示</text>
<rect x="64" y="899" width="93" height="21" rx="6" fill="#3b4252"/>
<text x="72" y="914" font-size="15" font-family="'DejaVu Sans Mono','SFMono-Regular',Menlo,monospace" fill="#e5c07b">&lt;leader&gt;x</text>
<text x="196" y="914" font-size="15" fill="#abb2bf">Hex(16進)表示トグル</text>
<rect x="540" y="132" width="470" height="253" rx="14" fill="#21252b"/>
<path d="M554,132 h442 a14,14 0 0 1 14,14 v22 h-470 v-22 a14,14 0 0 1 14,-14 z" fill="#2f343f"/>
<rect x="560" y="142" width="6" height="16" rx="3" fill="#53c9b8"/>
<text x="576" y="157" font-size="19" font-weight="700" fill="#53c9b8">カーソル移動</text>
<rect x="562" y="182" width="76" height="21" rx="6" fill="#3b4252"/>
<text x="570" y="197" font-size="15" font-family="'DejaVu Sans Mono','SFMono-Regular',Menlo,monospace" fill="#e5c07b">h j k l</text>
<text x="694" y="197" font-size="15" fill="#abb2bf">左 下 上 右</text>
<rect x="562" y="209" width="59" height="21" rx="6" fill="#3b4252"/>
<text x="570" y="224" font-size="15" font-family="'DejaVu Sans Mono','SFMono-Regular',Menlo,monospace" fill="#e5c07b">w / b</text>
<text x="694" y="224" font-size="15" fill="#abb2bf">次 / 前の単語へ</text>
<rect x="562" y="236" width="25" height="21" rx="6" fill="#3b4252"/>
<text x="570" y="251" font-size="15" font-family="'DejaVu Sans Mono','SFMono-Regular',Menlo,monospace" fill="#e5c07b">e</text>
<text x="694" y="251" font-size="15" fill="#abb2bf">単語の末尾へ</text>
<rect x="562" y="263" width="59" height="21" rx="6" fill="#3b4252"/>
<text x="570" y="278" font-size="15" font-family="'DejaVu Sans Mono','SFMono-Regular',Menlo,monospace" fill="#e5c07b">0 / $</text>
<text x="694" y="278" font-size="15" fill="#abb2bf">行頭 / 行末へ</text>
<rect x="562" y="290" width="68" height="21" rx="6" fill="#3b4252"/>
<text x="570" y="305" font-size="15" font-family="'DejaVu Sans Mono','SFMono-Regular',Menlo,monospace" fill="#e5c07b">gg / G</text>
<text x="694" y="305" font-size="15" fill="#abb2bf">ファイル先頭 / 末尾へ</text>
<rect x="562" y="317" width="59" height="21" rx="6" fill="#3b4252"/>
<text x="570" y="332" font-size="15" font-family="'DejaVu Sans Mono','SFMono-Regular',Menlo,monospace" fill="#e5c07b">{ / }</text>
<text x="694" y="332" font-size="15" fill="#abb2bf">段落を上 / 下へ</text>
<rect x="562" y="344" width="93" height="21" rx="6" fill="#3b4252"/>
<text x="570" y="359" font-size="15" font-family="'DejaVu Sans Mono','SFMono-Regular',Menlo,monospace" fill="#e5c07b">C-u / C-d</text>
<text x="694" y="359" font-size="15" fill="#abb2bf">半画面 上 / 下スクロール</text>
<rect x="540" y="407" width="470" height="172" rx="14" fill="#21252b"/>
<path d="M554,407 h442 a14,14 0 0 1 14,14 v22 h-470 v-22 a14,14 0 0 1 14,-14 z" fill="#2f343f"/>
<rect x="560" y="417" width="6" height="16" rx="3" fill="#53c9b8"/>
<text x="576" y="432" font-size="19" font-weight="700" fill="#53c9b8">保存・終了</text>
<rect x="562" y="457" width="33" height="21" rx="6" fill="#3b4252"/>
<text x="570" y="472" font-size="15" font-family="'DejaVu Sans Mono','SFMono-Regular',Menlo,monospace" fill="#e5c07b">:w</text>
<text x="694" y="472" font-size="15" fill="#abb2bf">保存</text>
<rect x="562" y="484" width="33" height="21" rx="6" fill="#3b4252"/>
<text x="570" y="499" font-size="15" font-family="'DejaVu Sans Mono','SFMono-Regular',Menlo,monospace" fill="#e5c07b">:q</text>
<text x="694" y="499" font-size="15" fill="#abb2bf">終了</text>
<rect x="562" y="511" width="42" height="21" rx="6" fill="#3b4252"/>
<text x="570" y="526" font-size="15" font-family="'DejaVu Sans Mono','SFMono-Regular',Menlo,monospace" fill="#e5c07b">:wq</text>
<text x="694" y="526" font-size="15" fill="#abb2bf">保存して終了</text>
<rect x="562" y="538" width="42" height="21" rx="6" fill="#3b4252"/>
<text x="570" y="553" font-size="15" font-family="'DejaVu Sans Mono','SFMono-Regular',Menlo,monospace" fill="#e5c07b">:q!</text>
<text x="694" y="553" font-size="15" fill="#abb2bf">破棄して終了</text>
<rect x="540" y="601" width="470" height="280" rx="14" fill="#21252b"/>
<path d="M554,601 h442 a14,14 0 0 1 14,14 v22 h-470 v-22 a14,14 0 0 1 14,-14 z" fill="#2f343f"/>
<rect x="560" y="611" width="6" height="16" rx="3" fill="#53c9b8"/>
<text x="576" y="626" font-size="19" font-weight="700" fill="#53c9b8">LSP（コード）</text>
<rect x="562" y="651" width="76" height="21" rx="6" fill="#3b4252"/>
<text x="570" y="666" font-size="15" font-family="'DejaVu Sans Mono','SFMono-Regular',Menlo,monospace" fill="#e5c07b">gd / gr</text>
<text x="694" y="666" font-size="15" fill="#abb2bf">定義 / 参照へ</text>
<rect x="562" y="678" width="33" height="21" rx="6" fill="#3b4252"/>
<text x="570" y="693" font-size="15" font-family="'DejaVu Sans Mono','SFMono-Regular',Menlo,monospace" fill="#e5c07b">gi</text>
<text x="694" y="693" font-size="15" fill="#abb2bf">実装へ</text>
<rect x="562" y="705" width="25" height="21" rx="6" fill="#3b4252"/>
<text x="570" y="720" font-size="15" font-family="'DejaVu Sans Mono','SFMono-Regular',Menlo,monospace" fill="#e5c07b">K</text>
<text x="694" y="720" font-size="15" fill="#abb2bf">ホバー情報</text>
<rect x="562" y="732" width="102" height="21" rx="6" fill="#3b4252"/>
<text x="570" y="747" font-size="15" font-family="'DejaVu Sans Mono','SFMono-Regular',Menlo,monospace" fill="#e5c07b">&lt;leader&gt;rn</text>
<text x="694" y="747" font-size="15" fill="#abb2bf">シンボルをリネーム</text>
<rect x="562" y="759" width="102" height="21" rx="6" fill="#3b4252"/>
<text x="570" y="774" font-size="15" font-family="'DejaVu Sans Mono','SFMono-Regular',Menlo,monospace" fill="#e5c07b">&lt;leader&gt;ca</text>
<text x="694" y="774" font-size="15" fill="#abb2bf">コードアクション</text>
<rect x="562" y="786" width="93" height="21" rx="6" fill="#3b4252"/>
<text x="570" y="801" font-size="15" font-family="'DejaVu Sans Mono','SFMono-Regular',Menlo,monospace" fill="#e5c07b">&lt;leader&gt;f</text>
<text x="694" y="801" font-size="15" fill="#abb2bf">フォーマット</text>
<rect x="562" y="813" width="76" height="21" rx="6" fill="#3b4252"/>
<text x="570" y="828" font-size="15" font-family="'DejaVu Sans Mono','SFMono-Regular',Menlo,monospace" fill="#e5c07b">[d / ]d</text>
<text x="694" y="828" font-size="15" fill="#abb2bf">前 / 次の診断へ</text>
<rect x="562" y="840" width="93" height="21" rx="6" fill="#3b4252"/>
<text x="570" y="855" font-size="15" font-family="'DejaVu Sans Mono','SFMono-Regular',Menlo,monospace" fill="#e5c07b">&lt;leader&gt;d</text>
<text x="694" y="855" font-size="15" fill="#abb2bf">診断をフロート表示</text>
<rect x="1038" y="132" width="470" height="253" rx="14" fill="#21252b"/>
<path d="M1052,132 h442 a14,14 0 0 1 14,14 v22 h-470 v-22 a14,14 0 0 1 14,-14 z" fill="#2f343f"/>
<rect x="1058" y="142" width="6" height="16" rx="3" fill="#53c9b8"/>
<text x="1074" y="157" font-size="19" font-weight="700" fill="#53c9b8">編集</text>
<rect x="1060" y="182" width="25" height="21" rx="6" fill="#3b4252"/>
<text x="1068" y="197" font-size="15" font-family="'DejaVu Sans Mono','SFMono-Regular',Menlo,monospace" fill="#e5c07b">x</text>
<text x="1192" y="197" font-size="15" fill="#abb2bf">1文字削除</text>
<rect x="1060" y="209" width="76" height="21" rx="6" fill="#3b4252"/>
<text x="1068" y="224" font-size="15" font-family="'DejaVu Sans Mono','SFMono-Regular',Menlo,monospace" fill="#e5c07b">dd / yy</text>
<text x="1192" y="224" font-size="15" fill="#abb2bf">行を削除(切取) / コピー</text>
<rect x="1060" y="236" width="59" height="21" rx="6" fill="#3b4252"/>
<text x="1068" y="251" font-size="15" font-family="'DejaVu Sans Mono','SFMono-Regular',Menlo,monospace" fill="#e5c07b">p / P</text>
<text x="1192" y="251" font-size="15" fill="#abb2bf">貼り付け 後 / 前</text>
<rect x="1060" y="263" width="33" height="21" rx="6" fill="#3b4252"/>
<text x="1068" y="278" font-size="15" font-family="'DejaVu Sans Mono','SFMono-Regular',Menlo,monospace" fill="#e5c07b">cc</text>
<text x="1192" y="278" font-size="15" fill="#abb2bf">行を変更（消して挿入）</text>
<rect x="1060" y="290" width="76" height="21" rx="6" fill="#3b4252"/>
<text x="1068" y="305" font-size="15" font-family="'DejaVu Sans Mono','SFMono-Regular',Menlo,monospace" fill="#e5c07b">&gt;&gt; / &lt;&lt;</text>
<text x="1192" y="305" font-size="15" fill="#abb2bf">インデント 右 / 左</text>
<rect x="1060" y="317" width="76" height="21" rx="6" fill="#3b4252"/>
<text x="1068" y="332" font-size="15" font-family="'DejaVu Sans Mono','SFMono-Regular',Menlo,monospace" fill="#e5c07b">u / C-r</text>
<text x="1192" y="332" font-size="15" fill="#abb2bf">取り消し / やり直し</text>
<rect x="1060" y="344" width="25" height="21" rx="6" fill="#3b4252"/>
<text x="1068" y="359" font-size="15" font-family="'DejaVu Sans Mono','SFMono-Regular',Menlo,monospace" fill="#e5c07b">.</text>
<text x="1192" y="359" font-size="15" fill="#abb2bf">直前の操作を繰り返す</text>
<rect x="1038" y="407" width="470" height="253" rx="14" fill="#21252b"/>
<path d="M1052,407 h442 a14,14 0 0 1 14,14 v22 h-470 v-22 a14,14 0 0 1 14,-14 z" fill="#2f343f"/>
<rect x="1058" y="417" width="6" height="16" rx="3" fill="#53c9b8"/>
<text x="1074" y="432" font-size="19" font-weight="700" fill="#53c9b8">ウィンドウ / バッファ</text>
<rect x="1060" y="457" width="93" height="21" rx="6" fill="#3b4252"/>
<text x="1068" y="472" font-size="15" font-family="'DejaVu Sans Mono','SFMono-Regular',Menlo,monospace" fill="#e5c07b">&lt;leader&gt;|</text>
<text x="1192" y="472" font-size="15" fill="#abb2bf">縦分割</text>
<rect x="1060" y="484" width="93" height="21" rx="6" fill="#3b4252"/>
<text x="1068" y="499" font-size="15" font-family="'DejaVu Sans Mono','SFMono-Regular',Menlo,monospace" fill="#e5c07b">&lt;leader&gt;-</text>
<text x="1192" y="499" font-size="15" fill="#abb2bf">横分割</text>
<rect x="1060" y="511" width="93" height="21" rx="6" fill="#3b4252"/>
<text x="1068" y="526" font-size="15" font-family="'DejaVu Sans Mono','SFMono-Regular',Menlo,monospace" fill="#e5c07b">C-h/j/k/l</text>
<text x="1192" y="526" font-size="15" fill="#abb2bf">ウィンドウ間を移動</text>
<rect x="1060" y="538" width="93" height="21" rx="6" fill="#3b4252"/>
<text x="1068" y="553" font-size="15" font-family="'DejaVu Sans Mono','SFMono-Regular',Menlo,monospace" fill="#e5c07b">S-h / S-l</text>
<text x="1192" y="553" font-size="15" fill="#abb2bf">前 / 次のバッファへ</text>
<rect x="1060" y="565" width="102" height="21" rx="6" fill="#3b4252"/>
<text x="1068" y="580" font-size="15" font-family="'DejaVu Sans Mono','SFMono-Regular',Menlo,monospace" fill="#e5c07b">&lt;leader&gt;bd</text>
<text x="1192" y="580" font-size="15" fill="#abb2bf">現在のバッファを閉じる</text>
<rect x="1060" y="592" width="42" height="21" rx="6" fill="#3b4252"/>
<text x="1068" y="607" font-size="15" font-family="'DejaVu Sans Mono','SFMono-Regular',Menlo,monospace" fill="#e5c07b">:ls</text>
<text x="1192" y="607" font-size="15" fill="#abb2bf">バッファ一覧</text>
<rect x="1060" y="619" width="42" height="21" rx="6" fill="#3b4252"/>
<text x="1068" y="634" font-size="15" font-family="'DejaVu Sans Mono','SFMono-Regular',Menlo,monospace" fill="#e5c07b">C-^</text>
<text x="1192" y="634" font-size="15" fill="#abb2bf">直前のバッファへ</text>
<rect x="1038" y="682" width="470" height="145" rx="14" fill="#21252b"/>
<path d="M1052,682 h442 a14,14 0 0 1 14,14 v22 h-470 v-22 a14,14 0 0 1 14,-14 z" fill="#2f343f"/>
<rect x="1058" y="692" width="6" height="16" rx="3" fill="#53c9b8"/>
<text x="1074" y="707" font-size="19" font-weight="700" fill="#53c9b8">補完（挿入モード・blink）</text>
<rect x="1060" y="732" width="42" height="21" rx="6" fill="#3b4252"/>
<text x="1068" y="747" font-size="15" font-family="'DejaVu Sans Mono','SFMono-Regular',Menlo,monospace" fill="#e5c07b">C-y</text>
<text x="1192" y="747" font-size="15" fill="#abb2bf">候補を確定</text>
<rect x="1060" y="759" width="93" height="21" rx="6" fill="#3b4252"/>
<text x="1068" y="774" font-size="15" font-family="'DejaVu Sans Mono','SFMono-Regular',Menlo,monospace" fill="#e5c07b">C-n / C-p</text>
<text x="1192" y="774" font-size="15" fill="#abb2bf">候補を下 / 上へ</text>
<rect x="1060" y="786" width="76" height="21" rx="6" fill="#3b4252"/>
<text x="1068" y="801" font-size="15" font-family="'DejaVu Sans Mono','SFMono-Regular',Menlo,monospace" fill="#e5c07b">C-Space</text>
<text x="1192" y="801" font-size="15" fill="#abb2bf">補完を手動表示</text>
<text x="42" y="982" font-size="14" fill="#788094">自分のカスタム設定を反映（Treesitter + LSP + blink補完 導入済み）</text>
</svg>